<svg xmlns="http://www.w3.org/2000/svg" width="40" height="41" viewBox="0 0 40 41" fill="none">
    <path
        d="M0 20.4444C0 22.8006 1.161 24.9713 3.05311 26.312C2.70282 27.1352 2.52143 28.0203 2.52143 28.931C2.52143 32.4196 5.20667 35.3024 8.64894 35.6814C9.3037 38.7158 12.0472 41 15.3206 41C17.1068 41 18.7236 40.5162 20.0002 39.6174C21.2774 40.5162 22.8937 41 24.6798 41C27.9532 41 30.6968 38.7158 31.3511 35.6814C34.7933 35.3024 37.4786 32.4196 37.4786 28.931C37.4786 28.0203 37.2972 27.1352 36.9469 26.312C38.839 24.9713 40 22.8006 40 20.4444C40 17.9343 38.6757 15.641 36.5823 14.3359C36.9034 13.5432 37.07 12.6945 37.07 11.8239C37.07 8.25694 34.2617 5.32271 30.7079 5.05211C29.9245 2.13154 27.2198 0 24.038 0C22.5809 0 21.1668 0.458289 20.0002 1.28558C18.8337 0.458289 17.4196 0 15.9624 0C12.7807 0 10.076 2.13154 9.29213 5.05211C5.73835 5.32317 2.93002 8.25694 2.93002 11.8239C2.93002 12.6945 3.09614 13.5428 3.41774 14.3359C1.32434 15.641 0 17.9343 0 20.4444ZM21.0224 22.9354C21.3292 22.945 21.679 22.9513 22.0427 22.9513C22.5698 22.9513 23.1223 22.9363 23.6123 22.8944C23.7808 23.5376 24.0274 24.1303 24.3536 24.5722C24.5535 24.8433 24.8649 24.9868 25.1814 24.9868C25.3897 24.9868 25.6002 24.9244 25.7816 24.7945C26.2383 24.4674 26.3397 23.8383 26.0074 23.3887C25.4096 22.5792 25.2379 20.4349 25.5058 19.7779C25.7159 19.2623 25.4619 18.6764 24.9376 18.4691C24.4138 18.2623 23.8187 18.5129 23.6082 19.029C23.4189 19.4941 23.3314 20.1661 23.343 20.8991C22.7026 20.9442 21.8151 20.9437 21.0229 20.9205V3.57611C21.8405 2.83447 22.9196 2.41536 24.0385 2.41536C26.0977 2.41536 27.8463 3.80024 28.3428 5.69353C27.1323 6.04294 26.0394 6.73493 25.2064 7.708C24.8427 8.13303 24.8978 8.76762 25.3295 9.12569C25.5216 9.28513 25.7552 9.36303 25.9875 9.36303C26.2786 9.36303 26.5673 9.24094 26.7695 9.00497C27.4979 8.15444 28.5154 7.61689 29.6204 7.48159L29.6214 7.48113C29.7172 7.46974 29.8097 7.46109 29.9004 7.45517C29.9009 7.45517 29.9013 7.45517 29.9022 7.45517C29.9934 7.44924 30.0823 7.44651 30.1711 7.44651C32.6227 7.44651 34.6175 9.40996 34.6175 11.8235C34.6175 12.51 34.4569 13.1751 34.1492 13.7787C33.6684 13.6744 33.1701 13.6179 32.6583 13.6179C31.5903 13.6179 30.5496 13.8607 29.6029 14.319C28.9703 13.7582 28.229 13.3045 27.4007 12.9984C26.8727 12.8025 26.2828 13.0658 26.0842 13.586C25.8857 14.1067 26.1532 14.6867 26.6816 14.8825C28.3678 15.5062 29.5955 17.0473 29.8088 18.809C29.8708 19.3201 30.3122 19.6959 30.8226 19.6959C30.8629 19.6959 30.9041 19.6932 30.9452 19.6887C31.5056 19.6226 31.9059 19.1219 31.8388 18.5698C31.724 17.6209 31.4135 16.728 30.9439 15.9353C31.488 15.7349 32.0674 15.6306 32.6583 15.6306C33.233 15.6306 33.7846 15.7294 34.2973 15.9094C34.4028 15.9463 34.5055 15.9868 34.6073 16.0305C34.6337 16.0419 34.6596 16.0538 34.6855 16.0656C34.7693 16.103 34.8512 16.1426 34.9317 16.1845C34.9645 16.2014 34.9969 16.2182 35.0289 16.236C35.102 16.2761 35.1737 16.3185 35.244 16.3613C35.2824 16.3854 35.3213 16.4091 35.3593 16.4342C35.4319 16.4815 35.5032 16.5303 35.5726 16.5813C35.6133 16.6114 35.6536 16.6433 35.6933 16.6742C35.7392 16.7098 35.784 16.7462 35.8285 16.7831C35.8655 16.8141 35.9025 16.8455 35.9386 16.8774C36.0048 16.9366 36.0691 16.9977 36.132 17.0596C36.1635 17.0911 36.194 17.1239 36.225 17.1558C36.2755 17.2091 36.325 17.2633 36.3731 17.3189C36.3958 17.3448 36.4194 17.3703 36.4411 17.3972C36.5022 17.4715 36.561 17.5471 36.6179 17.6245C36.6355 17.6482 36.6526 17.6719 36.6697 17.6961C36.7317 17.7835 36.7914 17.8724 36.8474 17.9639C36.8502 17.9685 36.853 17.9735 36.8557 17.978C36.9136 18.0733 36.9677 18.1703 37.0186 18.2696C37.0242 18.2796 37.0293 18.2901 37.0348 18.3001C37.0876 18.4044 37.1371 18.511 37.1824 18.6195C37.1833 18.6222 37.1843 18.6249 37.1857 18.6277C37.2319 18.7388 37.274 18.8523 37.312 18.9675C37.312 18.9675 37.312 18.968 37.312 18.9684C37.349 19.0809 37.3814 19.1957 37.4101 19.3119C37.4124 19.3224 37.4147 19.3329 37.417 19.3433C37.4448 19.4572 37.4684 19.5729 37.4874 19.6896C37.5054 19.8021 37.5184 19.916 37.5285 20.0303C37.5304 20.054 37.5322 20.0777 37.5336 20.1009C37.5424 20.2139 37.5475 20.3278 37.5475 20.4426C37.5475 22.3596 36.393 24.0925 34.6069 24.8578L33.4422 25.3567L34.1858 26.3703C34.7355 27.1197 35.0261 28.0044 35.0261 28.9291C35.0261 31.2015 33.2584 33.0742 31.0063 33.2861C30.7611 31.7837 29.9712 30.4174 28.7875 29.4421C29.2669 28.7351 29.6089 27.9328 29.7644 27.0732C29.8634 26.5261 29.4932 26.0031 28.937 25.9056C28.3803 25.8086 27.85 26.173 27.7515 26.7202C27.4428 28.4271 26.0764 29.8129 24.3518 30.1673C23.7993 30.2812 23.4448 30.8142 23.5605 31.3582C23.6614 31.8329 24.0862 32.159 24.56 32.159C24.6289 32.159 24.6993 32.1517 24.7701 32.1376C25.7437 31.9372 26.6386 31.5112 27.3989 30.9227C28.428 31.7313 29.0467 32.9649 29.0467 34.2833V34.2869C29.0448 36.6554 27.0861 38.5824 24.6803 38.5824C23.2065 38.5824 21.9238 38.1391 21.0229 37.3273L21.0224 22.9354ZM2.46729 20.1028C2.46868 20.0791 2.47053 20.0554 2.47238 20.0321C2.48256 19.9178 2.49552 19.8044 2.51356 19.6918V19.6914C2.53254 19.5748 2.55614 19.4591 2.5839 19.3452C2.58621 19.3347 2.58853 19.3242 2.59084 19.3137C2.61999 19.1976 2.65192 19.0828 2.68894 18.9702C2.68894 18.9698 2.68894 18.9693 2.68894 18.9693C2.72688 18.8541 2.76899 18.7411 2.8148 18.6295C2.81619 18.6268 2.81712 18.624 2.81804 18.6208C2.86339 18.5129 2.9129 18.4063 2.96565 18.3019C2.97074 18.2919 2.9763 18.2814 2.98185 18.2714C3.03275 18.1721 3.08689 18.0751 3.14473 17.9799C3.14751 17.9749 3.15028 17.9703 3.15306 17.9657C3.20905 17.8742 3.26874 17.7853 3.33075 17.6979C3.34787 17.6737 3.36499 17.65 3.38258 17.6264C3.43949 17.5489 3.49826 17.4733 3.55934 17.399C3.58155 17.3722 3.60469 17.3466 3.62736 17.3207C3.67549 17.2651 3.72454 17.2109 3.77544 17.1576C3.80598 17.1257 3.83698 17.0929 3.86844 17.0615C3.93138 16.9991 3.9957 16.938 4.06187 16.8792C4.09796 16.8474 4.13498 16.8159 4.172 16.7849C4.21642 16.748 4.26131 16.7116 4.30712 16.6761C4.34691 16.6451 4.38717 16.6132 4.42789 16.5831C4.4973 16.5321 4.56856 16.4829 4.64121 16.436C4.67915 16.4109 4.71802 16.3872 4.75643 16.3631C4.82723 16.3198 4.89895 16.2775 4.9716 16.2378C5.00399 16.2201 5.03638 16.2032 5.06877 16.1863C5.14929 16.1444 5.23119 16.1048 5.31495 16.0674C5.34086 16.0556 5.36724 16.0433 5.39361 16.0324C5.49495 15.9886 5.59814 15.9481 5.70318 15.9112C6.21589 15.7308 6.76747 15.6324 7.34218 15.6324C8.89557 15.6324 10.2264 16.3453 11.1093 17.6159C10.2278 18.1083 9.45039 18.7921 8.8456 19.6454C8.52261 20.1009 8.63598 20.7287 9.09918 21.0462C9.27733 21.1688 9.48093 21.2271 9.68314 21.2271C10.0061 21.2271 10.3236 21.0767 10.5221 20.7966C11.5526 19.3424 13.3716 18.553 15.1568 18.7839C15.7176 18.8559 16.2299 18.4691 16.3039 17.9179C16.378 17.3671 15.9842 16.8615 15.4243 16.7886C14.6196 16.6843 13.8195 16.7198 13.0546 16.8815C11.8136 14.8256 9.73127 13.6193 7.34172 13.6193C6.82993 13.6193 6.33111 13.6758 5.85079 13.7801C5.54308 13.1765 5.38251 12.5114 5.38251 11.8249C5.38251 9.41087 7.37735 7.44788 9.8289 7.44788C10.0061 7.44788 10.1861 7.45881 10.3786 7.48204L11.4619 7.61324L11.5239 6.54041C11.6572 4.22801 13.6067 2.41627 15.962 2.41627C17.0804 2.41627 18.1599 2.83538 18.9776 3.57702V10.3329C18.4533 10.6491 17.6574 10.7602 16.8291 10.609C15.6579 10.3949 14.7274 9.74342 14.3401 8.8642C14.1152 8.35443 13.5132 8.12073 12.9954 8.34168C12.4776 8.56308 12.2397 9.15576 12.4646 9.66552C13.1231 11.1593 14.6154 12.2522 16.4562 12.5879C16.8365 12.6572 17.2118 12.6913 17.5755 12.6913C18.0679 12.6913 18.5394 12.6275 18.9771 12.5068V37.331C18.0762 38.1428 16.793 38.586 15.3197 38.586C12.9163 38.586 10.9589 36.6622 10.9538 34.2965C10.9538 34.2938 10.9547 34.2906 10.9547 34.2874C10.9547 33.1695 11.3823 32.2014 12.1925 31.4875C12.9945 30.7805 14.1055 30.3915 15.3206 30.3915C15.8852 30.3915 16.3428 29.9409 16.3428 29.3852C16.3428 28.8294 15.8852 28.3788 15.3206 28.3788C14.7168 28.3788 14.1286 28.4513 13.5682 28.5875C13.6835 27.4386 13.484 26.2632 12.9644 25.2095C12.7177 24.7098 12.1069 24.5016 11.5979 24.744C11.0903 24.9868 10.8784 25.5886 11.125 26.0888C11.6817 27.2167 11.702 28.5478 11.1907 29.6958C11.0663 29.7892 10.945 29.8858 10.8284 29.9888C9.8414 30.8584 9.20931 32.0069 8.99413 33.2897C6.74109 33.0779 4.97391 31.2051 4.97391 28.9328C4.97391 28.008 5.26451 27.1229 5.81424 26.3739L6.55785 25.3603L5.39315 24.8615C3.60654 24.0957 2.45248 22.3632 2.45248 20.4462C2.45341 20.3296 2.4585 20.2157 2.46729 20.1028Z"
        fill="white" />
</svg>